<!--?xml version="1.0" encoding="utf-8"?-->
<!-- Svg Vector Icons : http://www.onlinewebfonts.com/icon -->

<svg version="1.1" xmlns="http://www.w3.org/2000/svg" xmlns:xlink="http://www.w3.org/1999/xlink" x="0px" y="0px" viewBox="0 0 256 256" enable-background="new 0 0 256 256" xml:space="preserve">
<metadata> Svg Vector Icons : http://www.onlinewebfonts.com/icon </metadata>
<g><g><g><path fill="#191919" data-title="Layer 0" xs="0" d="M195.7,12.7c-4.4,9.6-13.5,28.8-13.8,29.2c-0.2,0.2-7.5,1.4-16.1,2.7c-8.7,1.3-16.1,2.5-16.5,2.7c-0.6,0.3,1.6,2.8,11.2,12.8c6.6,6.8,12,12.7,12,13c0,0.3-1.3,8.2-2.8,17.5c-1.5,9.4-2.7,17.2-2.5,17.3c0.1,0.1,6.8-3.5,14.9-8c8.4-4.7,15-8.1,15.5-8c0.4,0.1,7.2,3.8,15,8.1c7.8,4.3,14.3,7.8,14.5,7.7c0.1-0.1-1-7.8-2.5-17c-1.5-9.3-2.7-17.1-2.7-17.5c0-0.4,5.5-6.4,12.2-13.3c6.7-6.9,12.1-12.5,12-12.6c-0.1,0-7.7-1.2-17-2.6l-16.8-2.6l-7.4-16c-4.1-8.8-7.5-16.1-7.6-16.2C197.1,9.8,196.4,11.1,195.7,12.7z"/><path fill="#191919" data-title="Layer 1" xs="1" d="M95.7,12C75,18.3,58.4,28.4,43.6,43.8C34,53.7,27.8,62.5,21.8,74.9c-14.4,29.7-15.7,64.9-3.6,95.6c14.1,35.6,44.4,62.5,81.4,72c10.3,2.7,18,3.6,29.3,3.7c19.8,0,36-3.7,53.4-12.2c19.3-9.5,36.8-25.3,48.4-43.8c4.2-6.7,9.3-17.6,11.9-25.4c3.7-11.2,3.8-11-2.8-4.3c-13.8,13.9-29.3,22.8-47.8,27.4c-18.6,4.7-38.2,4-56.8-2.1c-36.7-12-63.1-43.5-69.1-82.5c-1.1-6.9-1.1-21.7,0-28.7c3.5-22.7,13.3-42.1,29.6-58.2c3.2-3.2,5.7-5.9,5.6-5.9C101.2,10.4,98.6,11.1,95.7,12z"/></g></g></g>
</svg>