<!--?xml version="1.0" encoding="utf-8"?-->
<!-- Svg Vector Icons : http://www.onlinewebfonts.com/icon -->

<svg version="1.1" xmlns="http://www.w3.org/2000/svg" xmlns:xlink="http://www.w3.org/1999/xlink" x="0px" y="0px" viewBox="0 0 256 256" enable-background="new 0 0 256 256" xml:space="preserve">
<metadata> Svg Vector Icons : http://www.onlinewebfonts.com/icon </metadata>
<g><g><g><path fill="#f7f4f4" data-title="Layer 0" xs="0" d="M124.7,10.8c-0.9,0.5-2.1,1.5-2.6,2.4c-1.1,1.5-1.1,1.7-1.1,17.3c0,15,0,15.9,0.9,17.3c2.7,4.4,9.3,4.4,12,0c0.9-1.4,0.9-2.4,0.9-17.3c0-15.6,0-15.8-1-17.3c-1.3-1.9-3.8-3.2-5.9-3.2C127.1,10,125.6,10.3,124.7,10.8z"/><path fill="#f7f4f4" data-title="Layer 1" xs="1" d="M47.2,42.8c-3.1,1-5.3,4.8-4.7,8.3c0.2,1.4,2.1,3.5,11,12.5c5.9,6,11.3,11.1,12,11.5c1.8,0.9,5,0.8,6.8-0.3c3-1.9,4.3-6.2,2.7-9.2c-1-1.9-21.6-22.2-23.1-22.8C50.4,42.3,49.1,42.3,47.2,42.8z"/><path fill="#f7f4f4" data-title="Layer 2" xs="2" d="M203.9,42.9c-1.4,0.6-22,21-23,22.7c-1.6,3-0.3,7.3,2.7,9.2c1.8,1.1,5,1.2,6.8,0.3c0.7-0.4,6.1-5.5,11.9-11.5c9.2-9.2,10.8-11,11-12.5C214.4,45.5,209.1,40.9,203.9,42.9z"/><path fill="#f7f4f4" data-title="Layer 3" xs="3" d="M119,68.5c-13.9,2.4-25,8.2-34.6,18.3c-8,8.4-13,17.9-15.5,29.7c-1.2,5.5-1.2,17.6,0,23.1c2.6,12.4,7.8,21.9,16.7,30.8c8.9,8.9,18.5,14.1,30.8,16.7c5.5,1.2,17.6,1.2,23.1,0c12.4-2.6,21.9-7.8,30.8-16.8c8.9-8.9,14.1-18.4,16.8-30.8c0.6-2.9,0.8-6,0.8-11.6c0-5.6-0.2-8.7-0.8-11.6c-2.6-12.4-7.8-21.9-16.7-30.8c-8.8-8.8-18.3-14-30.4-16.6C135.3,68,123.7,67.7,119,68.5z M140,83.6c7.8,2.3,14.7,6.3,20.4,12c4.1,4.1,6.8,8,9.3,13.3c3.1,6.8,3.8,9.9,3.8,19.2c0,9.3-0.6,12.4-3.8,19.2c-2.5,5.3-5.2,9.2-9.3,13.3c-4.1,4.1-8,6.8-13.3,9.3c-6.8,3.1-9.9,3.8-19.2,3.8c-9.3,0-12.4-0.6-19.2-3.8c-5.3-2.5-9.2-5.2-13.3-9.3c-5.7-5.7-9.8-12.6-12.1-20.6c-0.9-3.2-1.1-4.7-1.1-11.8c0-7.1,0.1-8.6,1.1-11.8c5-17,18.2-29.5,35.3-33.3C123.4,81.9,135.5,82.2,140,83.6z"/><path fill="#f7f4f4" data-title="Layer 4" xs="4" d="M13.2,122.1c-4.2,2.9-4.2,8.9,0,11.8c1.5,1.1,1.7,1.1,17.3,1.1c15,0,15.9,0,17.3-0.9c4.4-2.7,4.4-9.3,0-12c-1.4-0.9-2.4-0.9-17.3-0.9C14.9,121.1,14.7,121.1,13.2,122.1z"/><path fill="#f7f4f4" data-title="Layer 5" xs="5" d="M208.2,122c-4.4,2.7-4.4,9.3,0,12c1.4,0.9,2.4,0.9,17.3,0.9h15.7l1.7-1.1c4.2-2.9,4.2-8.8,0-11.8c-1.5-1-1.7-1-17.3-1C210.5,121.1,209.6,121.1,208.2,122z"/><path fill="#f7f4f4" data-title="Layer 6" xs="6" d="M65.3,181.2c-0.7,0.5-6.1,5.6-11.9,11.4c-8.8,8.9-10.6,10.9-10.8,12.3c-0.9,5.1,3.3,9.4,8.5,8.4c1.5-0.2,3.3-1.9,12.5-11c6-5.9,11.1-11.3,11.5-11.9c0.9-1.8,0.8-5-0.3-6.8C72.8,180.5,68.3,179.3,65.3,181.2z"/><path fill="#f7f4f4" data-title="Layer 7" xs="7" d="M183.6,181.3c-2.9,1.8-4.3,6.1-2.8,8.9c0.3,0.6,5.3,5.9,11.3,11.8c11.4,11.5,12.2,12.1,15.9,11.4c2.2-0.4,5-3.2,5.4-5.4c0.7-3.7,0.1-4.4-11.4-15.9c-5.9-5.9-11.3-11-11.8-11.3C188.6,180,185.4,180.3,183.6,181.3z"/><path fill="#f7f4f4" data-title="Layer 8" xs="8" d="M124.4,205.8c-0.8,0.5-1.9,1.6-2.4,2.4c-0.9,1.4-0.9,2.4-0.9,17.3c0,15.6,0,15.8,1.1,17.3c2.9,4.2,8.8,4.3,11.7,0l1.1-1.7v-15.7c0-14.9,0-15.8-0.9-17.3c-1.3-2.1-3.5-3.3-6-3.3C126.7,204.9,125.3,205.3,124.4,205.8z"/></g></g></g>
</svg>